<svg id="visual" viewBox="0 0 3000 1000" width="3000" height="1000" xmlns="http://www.w3.org/2000/svg" xmlns:xlink="http://www.w3.org/1999/xlink" version="1.1"><rect x="0" y="0" width="3000" height="1000" fill="#002233"></rect><path d="M0 734L71.5 728C143 722 286 710 428.8 731.8C571.7 753.7 714.3 809.3 857.2 811.3C1000 813.3 1143 761.7 1285.8 741.7C1428.7 721.7 1571.3 733.3 1714.2 737.5C1857 741.7 2000 738.3 2142.8 754C2285.7 769.7 2428.3 804.3 2571.2 788.3C2714 772.3 2857 705.7 2928.5 672.3L3000 639L3000 1001L2928.5 1001C2857 1001 2714 1001 2571.2 1001C2428.3 1001 2285.7 1001 2142.8 1001C2000 1001 1857 1001 1714.2 1001C1571.3 1001 1428.7 1001 1285.8 1001C1143 1001 1000 1001 857.2 1001C714.3 1001 571.7 1001 428.8 1001C286 1001 143 1001 71.5 1001L0 1001Z" fill="#0066FF" stroke-linecap="round" stroke-linejoin="miter"></path></svg>