<svg id="visual" viewBox="0 0 3000 1000" width="3000" height="1000" xmlns="http://www.w3.org/2000/svg" xmlns:xlink="http://www.w3.org/1999/xlink" version="1.1"><rect x="0" y="0" width="3000" height="1000" fill="#001220"></rect><path d="M0 711L71.5 721.7C143 732.3 286 753.7 428.8 755.5C571.7 757.3 714.3 739.7 857.2 737.7C1000 735.7 1143 749.3 1285.8 752.5C1428.7 755.7 1571.3 748.3 1714.2 748.3C1857 748.3 2000 755.7 2142.8 750.5C2285.7 745.3 2428.3 727.7 2571.2 714.7C2714 701.7 2857 693.3 2928.5 689.2L3000 685L3000 1001L2928.5 1001C2857 1001 2714 1001 2571.2 1001C2428.3 1001 2285.7 1001 2142.8 1001C2000 1001 1857 1001 1714.2 1001C1571.3 1001 1428.7 1001 1285.8 1001C1143 1001 1000 1001 857.2 1001C714.3 1001 571.7 1001 428.8 1001C286 1001 143 1001 71.5 1001L0 1001Z" fill="#ff0000"></path><path d="M0 758L71.5 755.5C143 753 286 748 428.8 764.5C571.7 781 714.3 819 857.2 834.2C1000 849.3 1143 841.7 1285.8 823.3C1428.7 805 1571.3 776 1714.2 773.5C1857 771 2000 795 2142.8 809.7C2285.7 824.3 2428.3 829.7 2571.2 823.7C2714 817.7 2857 800.3 2928.5 791.7L3000 783L3000 1001L2928.5 1001C2857 1001 2714 1001 2571.2 1001C2428.3 1001 2285.7 1001 2142.8 1001C2000 1001 1857 1001 1714.2 1001C1571.3 1001 1428.7 1001 1285.8 1001C1143 1001 1000 1001 857.2 1001C714.3 1001 571.7 1001 428.8 1001C286 1001 143 1001 71.5 1001L0 1001Z" fill="#e70015"></path><path d="M0 864L71.5 870.7C143 877.3 286 890.7 428.8 895.8C571.7 901 714.3 898 857.2 887.5C1000 877 1143 859 1285.8 859.8C1428.7 860.7 1571.3 880.3 1714.2 881.2C1857 882 2000 864 2142.8 855C2285.7 846 2428.3 846 2571.2 843.8C2714 841.7 2857 837.3 2928.5 835.2L3000 833L3000 1001L2928.5 1001C2857 1001 2714 1001 2571.2 1001C2428.3 1001 2285.7 1001 2142.8 1001C2000 1001 1857 1001 1714.2 1001C1571.3 1001 1428.7 1001 1285.8 1001C1143 1001 1000 1001 857.2 1001C714.3 1001 571.7 1001 428.8 1001C286 1001 143 1001 71.5 1001L0 1001Z" fill="#cd001e"></path><path d="M0 882L71.5 893C143 904 286 926 428.8 933C571.7 940 714.3 932 857.2 925.3C1000 918.7 1143 913.3 1285.8 910.2C1428.7 907 1571.3 906 1714.2 910C1857 914 2000 923 2142.8 920.5C2285.7 918 2428.3 904 2571.2 905C2714 906 2857 922 2928.5 930L3000 938L3000 1001L2928.5 1001C2857 1001 2714 1001 2571.2 1001C2428.3 1001 2285.7 1001 2142.8 1001C2000 1001 1857 1001 1714.2 1001C1571.3 1001 1428.7 1001 1285.8 1001C1143 1001 1000 1001 857.2 1001C714.3 1001 571.7 1001 428.8 1001C286 1001 143 1001 71.5 1001L0 1001Z" fill="#b30222"></path></svg>